<svg xmlns="http://www.w3.org/2000/svg" viewBox="0 0 64 64" role="img"><title>RebootLoop favicon</title><rect width="64" height="64" rx="14" fill="#092E35"/><g transform="translate(6.4 7.2) scale(.8)"><path d="M40 12A10 10 0 0 1 50 22V49A10 10 0 0 1 40 59H24A10 10 0 0 1 14 49V28" fill="none" stroke="#F3EEE2" stroke-width="7.6"/><circle cx="40" cy="12" r="3.8" fill="#F3EEE2"/><path d="M17.8 31C17.82 30.92 17.87 30.67 17.91 30.5C17.95 30.34 17.99 30.17 18.03 30C18.07 29.83 18.11 29.66 18.15 29.49C18.19 29.32 18.24 29.15 18.28 28.98C18.32 28.81 18.37 28.63 18.41 28.46C18.46 28.29 18.51 28.11 18.55 27.94C18.6 27.76 18.65 27.59 18.69 27.41C18.74 27.23 18.79 27.05 18.84 26.88C18.89 26.7 18.94 26.52 18.99 26.34C19.04 26.16 19.09 25.98 19.14 25.8C19.19 25.62 19.24 25.44 19.29 25.25C19.34 25.07 19.39 24.89 19.44 24.71C19.49 24.52 19.54 24.34 19.59 24.15C19.64 23.97 19.69 23.78 19.74 23.6C19.79 23.41 19.84 23.22 19.9 23.04C19.95 22.85 20 22.66 20.05 22.47C20.1 22.28 20.15 22.09 20.2 21.9C20.26 21.71 20.31 21.52 20.36 21.33C20.41 21.14 20.46 20.94 20.52 20.75C20.57 20.56 20.62 20.36 20.68 20.17C20.73 19.97 20.78 19.78 20.84 19.58C20.89 19.38 20.95 19.18 21 18.99C21.06 18.79 21.12 18.59 21.17 18.39C21.23 18.19 21.29 17.98 21.35 17.78C21.41 17.58 21.47 17.38 21.53 17.17C21.59 16.97 21.66 16.76 21.72 16.56C21.79 16.35 21.85 16.14 21.92 15.94C21.99 15.73 22.06 15.52 22.13 15.31C22.2 15.1 22.28 14.89 22.35 14.68C22.43 14.47 22.51 14.26 22.59 14.05C22.67 13.83 22.76 13.62 22.85 13.41C22.93 13.19 23.02 12.98 23.12 12.77C23.21 12.55 23.31 12.34 23.41 12.12C23.51 11.91 23.61 11.69 23.72 11.48C23.82 11.26 23.93 11.05 24.05 10.83C24.16 10.62 24.28 10.4 24.41 10.19C24.53 9.97 24.66 9.76 24.79 9.54C24.92 9.33 25.06 9.12 25.2 8.9C25.34 8.69 25.48 8.48 25.64 8.27C25.79 8.06 25.94 7.85 26.1 7.64C26.26 7.43 26.43 7.22 26.6 7.02C26.77 6.81 26.95 6.61 27.13 6.41C27.32 6.21 27.51 6.02 27.71 5.83C27.9 5.63 28.1 5.44 28.31 5.25C28.51 5.06 28.72 4.87 28.94 4.68C29.15 4.49 29.37 4.3 29.6 4.11C29.82 3.92 30.05 3.74 30.28 3.55C30.52 3.37 30.88 3.09 31 3L31 3C30.85 3.04 30.41 3.14 30.12 3.22C29.82 3.29 29.53 3.37 29.25 3.46C28.96 3.55 28.68 3.64 28.4 3.73C28.11 3.83 27.84 3.93 27.56 4.03C27.28 4.13 27.01 4.24 26.74 4.35C26.47 4.47 26.21 4.59 25.94 4.7C25.67 4.82 25.41 4.94 25.14 5.06C24.88 5.18 24.61 5.3 24.35 5.43C24.09 5.55 23.83 5.68 23.57 5.81C23.31 5.95 23.06 6.08 22.81 6.22C22.55 6.36 22.3 6.5 22.05 6.65C21.8 6.79 21.56 6.94 21.31 7.09C21.07 7.25 20.83 7.4 20.59 7.56C20.35 7.72 20.11 7.88 19.88 8.05C19.65 8.22 19.42 8.38 19.19 8.56C18.96 8.73 18.74 8.91 18.51 9.09C18.29 9.26 18.07 9.45 17.86 9.63C17.64 9.82 17.43 10.01 17.22 10.2C17.02 10.39 16.81 10.59 16.61 10.79C16.41 10.98 16.21 11.19 16.02 11.39C15.83 11.59 15.64 11.8 15.45 12.01C15.27 12.22 15.09 12.43 14.91 12.65C14.73 12.86 14.56 13.08 14.39 13.3C14.22 13.52 14.06 13.74 13.9 13.97C13.74 14.19 13.59 14.42 13.44 14.65C13.29 14.88 13.14 15.11 13 15.34C12.86 15.57 12.72 15.81 12.59 16.04C12.46 16.28 12.34 16.52 12.21 16.76C12.09 17 11.98 17.24 11.86 17.48C11.75 17.72 11.65 17.96 11.54 18.21C11.44 18.45 11.34 18.69 11.25 18.94C11.16 19.18 11.07 19.43 10.99 19.68C10.9 19.92 10.83 20.17 10.75 20.42C10.68 20.66 10.61 20.91 10.55 21.16C10.48 21.4 10.42 21.65 10.37 21.9C10.31 22.15 10.26 22.39 10.22 22.64C10.17 22.88 10.13 23.13 10.09 23.38C10.06 23.62 10.03 23.87 10 24.11C9.97 24.35 9.94 24.6 9.92 24.84C9.9 25.08 9.89 25.32 9.87 25.56C9.86 25.8 9.85 26.04 9.85 26.27C9.84 26.51 9.84 26.75 9.84 26.98C9.84 27.22 9.85 27.45 9.86 27.68C9.87 27.91 9.88 28.14 9.89 28.37C9.91 28.59 9.93 28.82 9.95 29.04C9.97 29.27 9.99 29.49 10.02 29.71C10.04 29.93 10.07 30.15 10.1 30.36C10.13 30.58 10.18 30.89 10.2 31Z" fill="#4FD8B8"/></g></svg>
